<?xml version="1.0" encoding="utf-8"?>
<svg width="244px" height="244px" viewBox="0 0 244 244" version="1.1" xmlns:xlink="http://www.w3.org/1999/xlink" xmlns="http://www.w3.org/2000/svg">
  <defs>
    <path d="M4.2312 122C4.2312 56.9581 56.9581 4.23122 122 4.23122C187.042 4.23122 239.769 56.9581 239.769 122C239.769 187.042 187.042 239.769 122 239.769C56.9581 239.769 4.2312 187.042 4.2312 122Z" id="path_1" />
    <path d="M23 122.435C23 66.9662 67.9662 22 123.435 22C178.904 22 223.87 66.9662 223.87 122.435C223.87 177.904 178.904 222.87 123.435 222.87C67.9662 222.87 23 177.904 23 122.435Z" id="path_2" />
    <path d="M30 122.341C30 70.7902 71.7902 29 123.341 29C174.892 29 216.682 70.7902 216.682 122.341C216.682 173.892 174.892 215.682 123.341 215.682C71.7902 215.682 30 173.892 30 122.341Z" id="path_3" />
    <clipPath id="clip_1">
      <use xlink:href="#path_1" clip-rule="evenodd" fill-rule="evenodd" />
    </clipPath>
    <clipPath id="clip_2">
      <use xlink:href="#path_2" />
    </clipPath>
    <clipPath id="clip_3">
      <use xlink:href="#path_3" />
    </clipPath>
  </defs>
  <g id="Group">
    <path d="M0 122C0 54.6213 54.6213 0 122 0C189.379 0 244 54.6213 244 122C244 189.379 189.379 244 122 244C54.6213 244 0 189.379 0 122Z" id="Oval" fill="#D78A91" fill-rule="evenodd" stroke="none" />
    <path d="M4.2312 122C4.2312 56.9581 56.9581 4.23122 122 4.23122C187.042 4.23122 239.769 56.9581 239.769 122C239.769 187.042 187.042 239.769 122 239.769C56.9581 239.769 4.2312 187.042 4.2312 122Z" id="Oval" fill="#EBDAE0" fill-rule="evenodd" stroke="none" />
    <g clip-path="url(#clip_1)">
      <g id="Oval">
        <use stroke="none" fill="#D1E3BF" xlink:href="#path_2" fill-rule="evenodd" />
        <g clip-path="url(#clip_2)">
          <use xlink:href="#path_2" fill="none" stroke="#EDE7E3" stroke-width="20" />
        </g>
      </g>
      <g id="Oval">
        <use stroke="none" fill="#EBDAE0" xlink:href="#path_3" fill-rule="evenodd" />
        <g clip-path="url(#clip_3)">
          <use xlink:href="#path_3" fill="none" stroke="#D1E3BF" stroke-width="20" />
        </g>
      </g>
      <path d="M47.8529 149.148L47.8529 144.764C45.559 146.465 42.6259 147.821 39.0537 148.832C35.4502 149.834 31.7061 150.335 27.8213 150.335C21.8447 150.335 16.624 149.201 12.1592 146.934C7.69434 144.666 4.21387 141.414 1.71777 137.178C-0.760742 132.924 -2 127.949 -2 122.254C-2 116.418 -0.760742 111.417 1.71777 107.251C4.21387 103.067 7.69434 99.8418 12.1592 97.5742C16.624 95.3066 21.8447 94.1729 27.8213 94.1729C31.7061 94.1729 35.4678 94.6826 39.1064 95.7021C42.7125 96.6951 45.628 98.042 47.8529 99.7428L47.8529 73L67.0746 73L67.0746 103.326C68.7341 100.708 70.9401 98.5973 73.6927 96.9941C76.9095 95.1133 80.5658 94.1729 84.6615 94.1729C88.9857 94.1729 92.5892 95.043 95.472 96.7832C98.3548 98.5059 100.535 101.116 102.011 104.614C103.488 108.095 104.226 112.568 104.226 118.035L104.226 149.148L84.3451 149.148L84.3451 118.8C84.3451 116.638 84.0902 114.897 83.5804 113.579C83.0882 112.243 82.3148 111.268 81.2601 110.652C80.223 110.037 78.9486 109.729 77.4369 109.729C75.4857 109.729 73.7718 110.16 72.2953 111.021C70.8187 111.883 69.6673 113.087 68.8412 114.634C68.015 116.181 67.6019 118 67.6019 120.092L67.6019 149.148L47.8529 149.148L47.8529 149.148ZM161.213 95.3594L179.459 95.3594L179.459 107.16C180.453 103.754 182.158 100.963 184.574 98.7871C187.422 96.2207 191.184 94.7881 195.859 94.4893L202.24 93.9619L203.532 111.232L192.194 112.313C188.45 112.612 185.673 113.737 183.862 115.688C182.069 117.622 181.173 120.276 181.173 123.651L181.173 149.148L161.213 149.148L161.213 95.3594L161.213 95.3594ZM204.285 95.3594L222.531 95.3594L222.531 107.16C223.525 103.754 225.23 100.963 227.646 98.7871C230.494 96.2207 234.256 94.7881 238.931 94.4893L245.312 93.9619L246.604 111.232L235.266 112.313C231.522 112.612 228.745 113.737 226.934 115.688C225.141 117.622 224.245 120.276 224.245 123.651L224.245 149.148L204.285 149.148L204.285 95.3594L204.285 95.3594ZM137.152 150.335C130.244 150.335 124.338 149.184 119.433 146.881C114.547 144.578 110.838 141.326 108.307 137.125C105.793 132.906 104.536 127.949 104.536 122.254C104.536 116.787 105.74 111.971 108.148 107.805C110.574 103.621 113.958 100.308 118.3 97.8643C122.659 95.4033 127.722 94.1729 133.487 94.1729C138.813 94.1729 143.489 95.2891 147.515 97.5215C151.557 99.7539 154.73 102.962 157.033 107.146C159.336 111.312 160.487 116.348 160.487 122.254L160.487 126.684L123.376 126.684C123.643 127.945 124.025 129.062 124.522 130.032C125.612 132.124 127.247 133.653 129.427 134.62C131.624 135.587 134.454 136.07 137.917 136.07C140.659 136.07 143.524 135.675 146.513 134.884C149.501 134.093 152.111 132.977 154.344 131.535L159.195 144.402C156.242 146.266 152.806 147.725 148.886 148.779C144.966 149.816 141.055 150.335 137.152 150.335L137.152 150.335ZM47.8529 99.948L47.8529 144.563L42.6133 131.008C40.9609 132.309 39.001 133.337 36.7334 134.093C34.4658 134.849 32.2861 135.227 30.1943 135.227C26.3096 135.227 23.2861 134.093 21.124 131.825C18.9619 129.558 17.8809 126.367 17.8809 122.254C17.8809 118.088 18.9619 114.906 21.124 112.709C23.2861 110.512 26.3096 109.413 30.1943 109.413C32.2861 109.413 34.4658 109.773 36.7334 110.494C39.001 111.215 40.9961 112.217 42.7188 113.5L47.8529 99.948L47.8529 99.948ZM124.311 112.92C123.745 114.118 123.35 115.498 123.128 117.06L144.152 117.06C143.96 113.802 143.085 111.341 141.529 109.677C139.771 107.761 137.31 106.803 134.146 106.803C131.844 106.803 129.857 107.33 128.187 108.385C126.535 109.422 125.243 110.934 124.311 112.92L124.311 112.92Z" id="Vector" fill="#FBF7F4" fill-rule="evenodd" stroke="#C15066" stroke-width="1.5" />
    </g>
  </g>
</svg>